# xmcd
#
# Track frame offsets:
#	150
#	12923
#	25761
#	42147
#	54485
#	71298
#	93120
#	108223
#	125590
#	141805
#	156600
#
# Disc length: 2330 seconds
#
# Revision: 1
# Processed by: cddbd v1.5.1PL0 Copyright (c) Steve Scherf et al.
# Submitted via: audiograbber 1.83.01
#
DISCID=8809180b
DTITLE=Billy Keeble - Unchained country
DYEAR=1900
DGENRE=Country
TTITLE0=The blues is a good woman gone
TTITLE1=Shame on me
TTITLE2=The whole world must be color blind
TTITLE3=Wild turkey and Seven-Up
TTITLE4=Do these two arms
TTITLE5=West Texas morning
TTITLE6=The road to yesterday
TTITLE7=Back to my honky tonk ways
TTITLE8=Please baby please
TTITLE9=Your memory still takes control
TTITLE10=I'll be walking in your sleep tonight
EXTD=
EXTT0=
EXTT1=
EXTT2=
EXTT3=
EXTT4=
EXTT5=
EXTT6=
EXTT7=
EXTT8=
EXTT9=
EXTT10=
PLAYORDER=
